<?xml version="1.0" standalone="no"?>
<!DOCTYPE svg PUBLIC "-//W3C//DTD SVG 20010904//EN"
 "http://www.w3.org/TR/2001/REC-SVG-20010904/DTD/svg10.dtd">
<svg version="1.0" xmlns="http://www.w3.org/2000/svg"
 width="1280.000000pt" height="774.000000pt" viewBox="0 0 1280.000000 774.000000"
 preserveAspectRatio="xMidYMid meet">
<metadata>
Created by potrace 1.15, written by Peter Selinger 2001-2017
</metadata>
<g transform="translate(0.000000,774.000000) scale(0.100000,-0.100000)"
fill="#000000" stroke="none">
<path d="M7097 7720 c-3 -14 -17 -108 -31 -209 -13 -101 -29 -188 -35 -194 -6
-6 -11 -22 -11 -36 0 -39 -11 -71 -24 -71 -6 0 -24 -30 -41 -67 -17 -38 -37
-68 -47 -71 -13 -3 -18 -14 -18 -38 0 -24 -5 -34 -15 -34 -11 0 -15 -11 -15
-41 0 -32 -4 -42 -19 -46 -16 -4 -20 -18 -26 -89 l-7 -85 -28 6 -28 6 -12
-120 c-10 -89 -17 -121 -26 -121 -8 0 -14 -6 -15 -12 0 -7 -12 -130 -27 -273
l-27 -260 -25 -3 -25 -3 -44 -467 c-101 -1079 -94 -1016 -114 -1020 -17 -3
-18 3 -12 85 3 48 8 98 11 111 4 18 0 22 -20 22 -14 0 -27 3 -29 8 -2 4 2 84
9 177 7 94 13 178 13 187 1 13 -9 18 -46 20 l-48 3 2 35 c1 19 12 240 23 490
12 250 26 463 31 472 14 28 11 78 -5 78 -8 0 -45 46 -82 103 -37 56 -93 139
-125 185 -49 68 -59 89 -59 123 l0 42 -201 -5 -201 -5 -21 -27 -22 -27 -58
153 c-37 99 -59 176 -64 218 -3 36 -10 68 -15 71 -5 3 -13 45 -17 94 -5 48
-13 90 -18 94 -6 3 -14 42 -18 86 -8 91 -10 96 -31 88 -14 -5 -15 -19 -9 -94
4 -51 3 -89 -2 -89 -5 0 -5 -38 0 -91 6 -60 6 -94 -1 -98 -6 -4 -7 -32 -3 -71
4 -45 1 -88 -10 -140 -9 -41 -27 -130 -40 -197 -20 -106 -26 -123 -42 -123
-15 0 -18 -7 -16 -38 2 -21 0 -42 -3 -48 -4 -5 -2 -46 4 -89 6 -49 7 -80 1
-82 -6 -2 -5 -43 3 -106 7 -59 8 -104 3 -108 -5 -3 0 -72 11 -160 10 -84 40
-329 65 -543 50 -417 50 -409 -5 -404 -20 3 -31 19 -71 108 -26 58 -52 105
-58 104 -6 -1 -17 -2 -25 -2 -10 -2 -17 -33 -26 -121 l-13 -119 -85 -16 c-47
-9 -86 -17 -88 -19 -1 -1 2 -24 8 -50 5 -27 8 -50 6 -52 -2 -3 -19 -6 -38 -7
-32 -3 -34 -1 -44 40 -7 28 -30 63 -69 107 -49 54 -62 64 -82 59 -21 -5 -25
-1 -34 33 -70 263 -101 387 -101 399 0 8 -4 14 -10 14 -5 0 -17 27 -27 60 -9
33 -22 60 -28 60 -6 0 -20 36 -30 79 -10 44 -21 85 -25 91 -10 16 -242 -52
-269 -79 l-20 -20 25 -77 c22 -68 25 -99 8 -82 -3 4 -51 143 -106 310 -55 166
-109 311 -118 320 -10 9 -24 40 -31 68 -11 42 -17 50 -31 46 -15 -3 -21 5 -31
41 -12 46 -20 49 -68 29 -12 -5 -18 -1 -23 16 -12 45 -20 50 -54 32 -17 -8
-36 -13 -41 -10 -5 3 -28 62 -52 131 -24 69 -47 125 -50 125 -3 0 -16 -35 -29
-77 -12 -43 -29 -84 -38 -90 -14 -11 -13 -20 11 -80 24 -59 25 -68 12 -76 -10
-5 -14 -16 -10 -28 4 -11 2 -19 -5 -19 -6 0 -8 -5 -4 -11 3 -6 1 -14 -5 -18
-9 -6 -6 -20 8 -54 18 -41 18 -48 5 -55 -13 -7 -12 -16 10 -66 20 -45 22 -58
12 -62 -14 -5 4 -52 214 -562 36 -88 59 -157 54 -161 -5 -5 -63 -32 -129 -61
-161 -70 -297 -139 -293 -148 2 -4 29 -58 61 -119 31 -62 57 -117 57 -121 0
-5 -24 -22 -52 -37 -29 -16 -67 -39 -85 -52 l-32 -25 29 -46 c15 -26 299 -526
630 -1111 417 -738 598 -1067 591 -1074 -6 -6 -13 -9 -15 -6 -8 8 -777 1309
-782 1324 -4 8 -12 15 -19 15 -7 0 -34 36 -60 79 l-46 80 -36 -22 -36 -21 -16
24 c-39 59 -43 62 -71 41 -20 -16 -22 -22 -11 -35 7 -8 10 -20 7 -25 -4 -6 -1
-20 6 -31 11 -17 11 -22 -1 -29 -10 -7 -5 -21 26 -67 43 -64 66 -104 60 -104
-3 0 -26 34 -53 75 -30 45 -56 75 -66 75 -11 0 -41 36 -79 93 -34 50 -63 93
-65 95 -5 7 -74 -44 -74 -54 0 -6 7 -17 15 -24 9 -7 14 -21 13 -30 -2 -10 41
-81 95 -159 54 -78 97 -147 95 -153 -5 -14 -26 14 -231 299 l-145 203 -68 -51
c-100 -76 -200 -155 -279 -223 -38 -33 -72 -61 -73 -62 -2 -2 44 -55 102 -120
58 -64 106 -120 106 -124 0 -14 -29 -32 -40 -25 -6 4 -258 276 -561 606 -303
330 -557 603 -565 606 -19 7 -254 -76 -280 -98 -20 -18 -21 -18 -69 31 -45 46
-50 48 -66 34 -10 -9 -22 -13 -27 -10 -5 3 -15 -1 -22 -9 -12 -14 -15 -13 -35
5 l-21 20 -34 -35 -34 -35 -53 51 -54 51 -52 -6 c-28 -4 -53 -9 -55 -11 -4 -4
96 -98 109 -103 18 -7 8 -26 -42 -84 l-51 -59 22 -24 22 -23 -39 -43 c-24 -27
-33 -44 -25 -46 17 -6 15 -23 -5 -45 -16 -18 -15 -20 22 -51 22 -18 50 -41 62
-52 l23 -20 -70 -89 c-39 -50 -69 -93 -68 -97 2 -4 338 -262 748 -573 410
-312 745 -572 745 -579 0 -6 4 -17 8 -24 8 -13 -21 -66 -33 -61 -4 2 -60 41
-124 88 -65 47 -124 84 -132 82 -8 -2 -43 18 -78 43 -35 25 -66 45 -69 45 -3
0 -19 -18 -36 -39 l-32 -40 95 -66 96 -66 -25 -39 c-14 -22 -25 -43 -25 -47 0
-5 54 -43 120 -87 66 -43 120 -81 120 -83 0 -2 -13 -23 -28 -46 -16 -23 -45
-69 -64 -103 l-35 -60 84 -49 c49 -28 80 -52 75 -57 -5 -5 -148 70 -346 182
-240 136 -343 189 -357 185 -12 -4 -37 4 -65 20 -25 15 -51 25 -57 22 -7 -3
-40 -55 -75 -116 -35 -61 -66 -111 -68 -111 -3 0 -14 5 -24 10 -16 8 -22 6
-32 -15 l-14 -25 -87 42 c-70 33 -90 39 -100 29 -9 -10 -8 -14 5 -22 16 -9 15
-14 -9 -63 -20 -41 -30 -52 -44 -49 -14 4 -19 0 -19 -15 0 -11 5 -22 10 -24 6
-2 -9 -52 -34 -113 -31 -77 -41 -112 -33 -117 7 -4 52 -22 100 -39 70 -25 87
-35 82 -48 -30 -75 -85 -247 -82 -254 2 -6 27 -17 57 -27 44 -13 55 -20 53
-36 -2 -17 15 -25 122 -59 69 -21 125 -41 124 -44 0 -3 -6 -20 -12 -37 l-12
-32 -405 118 c-223 64 -431 124 -463 134 -54 16 -57 18 -55 47 3 29 0 32 -57
49 -67 22 -66 22 -85 -57 -14 -55 -14 -55 -47 -50 -37 6 -33 17 -84 -197 -15
-65 -30 -120 -32 -123 -3 -2 -33 3 -68 11 -56 13 -65 13 -75 0 -6 -8 -19 -12
-28 -8 -12 4 -16 0 -16 -15 0 -12 6 -21 15 -21 19 0 19 8 -7 -147 -21 -125
-24 -133 -45 -133 -18 0 -23 -6 -23 -24 0 -13 -3 -38 -6 -55 -6 -28 -4 -31 20
-31 22 0 26 -4 26 -29 0 -28 3 -30 48 -36 97 -13 102 -15 102 -41 0 -13 -4
-24 -9 -24 -11 0 -20 -80 -9 -86 4 -3 5 -10 3 -17 -2 -7 -6 -47 -9 -90 l-6
-77 27 0 c26 0 26 0 20 -64 l-6 -63 66 -7 c71 -7 83 -2 83 42 0 26 3 27 217
12 82 -6 411 -26 733 -45 322 -20 657 -40 745 -45 88 -6 270 -17 405 -25 135
-8 259 -15 277 -15 33 0 33 0 33 -49 l0 -48 68 -6 c37 -4 97 -7 134 -7 61 0
67 -2 70 -22 l3 -23 420 -7 c610 -11 620 -11 617 -25 -1 -10 62 -13 295 -12
164 1 290 3 279 6 -17 4 -18 12 -11 75 3 39 15 104 26 146 10 41 19 95 19 119
0 25 15 81 35 135 20 51 48 124 62 163 31 85 91 177 185 285 l70 82 -16 56
c-8 31 -14 57 -12 60 2 2 21 -15 43 -38 l38 -42 35 32 c66 58 231 162 328 205
238 107 493 146 762 115 86 -10 98 -14 128 -43 19 -18 40 -44 49 -58 11 -18
30 -30 64 -38 69 -18 273 -121 349 -176 198 -145 341 -317 440 -528 68 -145
120 -364 120 -504 l0 -63 1628 0 c2312 0 3804 10 3798 25 -2 7 -6 99 -7 204
-2 106 -5 194 -8 195 -3 2 -179 -7 -391 -20 -1369 -81 -1593 -94 -1595 -92 -2
2 -6 42 -10 89 l-7 86 218 22 c121 13 246 26 279 30 56 6 60 8 63 34 2 19 9
27 23 27 14 0 19 7 19 25 0 20 6 27 31 32 l31 6 -7 72 -7 73 29 6 c34 7 155
26 166 26 4 0 6 12 5 27 -3 27 -1 28 65 37 66 8 68 9 65 35 -3 22 -7 26 -33
24 -150 -9 -190 -13 -244 -23 -65 -12 -81 -8 -81 16 0 12 -7 14 -30 10 -95
-19 -87 -20 -94 19 -6 30 -10 34 -29 30 -54 -12 -506 -95 -519 -95 -10 0 -18
21 -27 65 -8 41 -18 65 -26 65 -11 0 -176 -35 -378 -80 -35 -7 -37 -6 -43 19
-3 14 -23 88 -43 164 l-38 137 171 55 c94 29 359 113 590 185 230 71 422 133
427 136 9 5 121 141 132 160 8 14 -30 128 -108 324 -69 174 -101 240 -118 240
-6 1 -55 7 -107 14 l-94 13 -700 -333 c-385 -184 -700 -333 -702 -331 -18 18
-129 245 -123 252 4 6 48 33 98 60 50 28 91 56 91 63 0 7 -11 30 -25 52 l-25
39 -99 -59 c-54 -33 -101 -60 -104 -60 -12 0 -69 102 -60 108 5 4 25 17 44 29
19 12 70 69 114 127 l80 105 595 409 c327 225 604 415 615 422 28 17 97 118
86 124 -5 4 -22 1 -37 -4 -15 -6 -28 -9 -30 -8 -1 2 80 91 181 198 160 169
202 220 180 220 -3 0 -113 -54 -245 -120 -132 -66 -242 -120 -245 -120 -3 0 2
14 10 30 9 17 13 34 10 39 -2 5 -32 1 -65 -10 -50 -15 -97 -48 -280 -191 -122
-95 -234 -176 -249 -180 -16 -5 -34 -14 -40 -22 -7 -8 -18 -13 -24 -10 -7 2
-151 -106 -321 -242 -169 -135 -309 -244 -310 -242 -1 2 -18 24 -38 49 l-37
46 39 32 c22 18 40 37 40 43 0 7 -14 27 -32 45 -28 29 -30 35 -18 47 8 7 62
55 120 107 58 51 108 100 111 109 4 8 25 32 48 53 37 33 42 44 50 103 8 51 16
73 37 96 l28 28 -22 22 -22 22 -27 -26 c-22 -20 -42 -27 -97 -31 l-68 -6 -164
-157 -164 -156 -57 50 c-32 28 -71 64 -87 81 -34 36 -44 38 -61 14 -12 -16
-15 -16 -32 -2 -10 8 -47 40 -81 70 l-64 54 -30 -34 c-28 -31 -32 -32 -55 -20
-24 13 -27 12 -52 -18 l-26 -31 -24 19 c-13 10 -27 19 -31 19 -4 0 -33 -33
-64 -74 -41 -53 -62 -73 -75 -69 -13 3 -33 -16 -74 -71 -32 -42 -60 -76 -63
-76 -2 0 18 30 45 66 42 55 48 69 39 84 -10 15 -2 31 50 101 35 46 60 90 57
97 -3 8 13 39 35 71 l40 56 -22 17 c-64 47 -66 32 22 157 64 90 78 116 69 127
-6 8 -15 14 -18 14 -4 0 -42 -52 -86 -115 -68 -100 -80 -113 -97 -104 -10 5
-22 8 -27 5 -4 -3 -32 -42 -61 -86 -50 -76 -54 -80 -74 -67 -12 8 -52 33 -89
57 l-69 43 7 88 c4 49 4 89 1 89 -3 0 -25 -14 -48 -30 -23 -17 -43 -29 -45
-27 -2 3 351 649 468 854 l30 52 -31 16 c-29 15 -30 17 -16 37 14 19 13 23 -2
34 -16 11 -13 21 35 112 l53 99 -148 71 c-81 39 -177 84 -215 101 l-67 30 -15
-37 c-69 -168 -81 -192 -96 -192 -11 0 -54 -90 -149 -315 -73 -173 -137 -315
-141 -315 -5 0 -11 11 -15 25 -5 19 26 105 121 341 70 173 126 316 124 318 -2
2 -55 22 -117 46 -132 51 -127 21 -48 241 l53 149 -65 21 c-61 20 -63 22 -56
48 17 62 17 61 -111 99 -66 19 -122 36 -123 37 -2 2 21 96 52 208 31 113 56
207 56 210 0 3 -49 17 -110 32 -101 25 -109 29 -105 49 3 11 41 174 85 360 44
187 80 345 80 353 0 7 -10 13 -23 13 -13 0 -65 9 -117 21 -74 16 -354 69 -367
69 -2 0 -3 9 -3 20 0 11 -5 20 -10 20 -6 0 -8 15 -4 40 5 32 4 40 -9 40 -12 0
-19 19 -28 75 -8 53 -16 75 -26 75 -10 0 -12 6 -7 23 4 12 7 49 6 82 0 33 10
140 24 239 14 98 23 183 21 190 -3 6 -7 0 -10 -14z m-56 -491 l-9 -34 -1 37
c-1 20 2 45 6 55 7 16 8 16 11 -3 2 -12 -1 -37 -7 -55z m2759 -3707 c0 -4 -9
-13 -20 -20 -22 -13 -27 -3 -8 16 14 14 28 16 28 4z m-6874 -2624 c-3 -13 -16
-60 -27 -106 -13 -50 -26 -81 -33 -79 -14 5 -11 32 15 130 15 53 26 77 36 77
11 0 14 -6 9 -22z m270 -80 c-3 -13 -14 -56 -23 -95 -16 -67 -32 -89 -48 -64
-3 6 4 48 16 95 18 72 25 86 41 86 16 0 19 -5 14 -22z m-326 -145 c0 -5 -7
-44 -15 -88 -22 -113 -45 -318 -45 -397 0 -55 -3 -68 -16 -68 -13 0 -15 12 -9
93 9 146 44 407 60 455 5 13 25 17 25 5z m276 -70 c-21 -72 -56 -363 -56 -465
0 -63 -2 -68 -22 -68 -21 0 -21 2 -14 123 6 113 38 365 51 408 8 25 48 26 41
2z"/>
</g>
</svg>
