<?xml version="1.0" standalone="no"?>
<!DOCTYPE svg PUBLIC "-//W3C//DTD SVG 20010904//EN"
 "http://www.w3.org/TR/2001/REC-SVG-20010904/DTD/svg10.dtd">
<svg version="1.0" xmlns="http://www.w3.org/2000/svg"
 width="1177.000000pt" height="1280.000000pt" viewBox="0 0 1177.000000 1280.000000"
 preserveAspectRatio="xMidYMid meet">
<metadata>
Created by potrace 1.15, written by Peter Selinger 2001-2017
</metadata>
<g transform="translate(0.000000,1280.000000) scale(0.100000,-0.100000)"
fill="#000000" stroke="none">
<path d="M6762 12780 c0 -14 2 -19 5 -12 2 6 2 18 0 25 -3 6 -5 1 -5 -13z"/>
<path d="M6752 12715 c0 -16 2 -22 5 -12 2 9 2 23 0 30 -3 6 -5 -1 -5 -18z"/>
<path d="M6743 12645 c0 -22 2 -30 4 -17 2 12 2 30 0 40 -3 9 -5 -1 -4 -23z"/>
<path d="M5364 12559 c4 -22 4 -45 0 -50 -3 -6 -8 -52 -10 -102 -3 -74 -11
-111 -41 -196 -26 -70 -44 -106 -55 -109 -20 -5 -20 -5 -22 -149 -1 -56 -4
-104 -7 -107 -3 -3 11 -138 30 -300 19 -163 33 -297 30 -299 -2 -3 -20 -7 -40
-11 -35 -6 -37 -5 -78 54 -23 33 -45 60 -49 60 -18 -1 -30 -19 -47 -70 -9 -30
-22 -59 -27 -65 -5 -5 -43 -17 -86 -25 -73 -15 -77 -17 -77 -42 -1 -33 -2 -34
-46 -42 -33 -6 -37 -4 -43 19 -9 35 -92 87 -127 79 -27 -5 -27 -4 -55 112 -16
65 -35 123 -41 130 -7 7 -13 19 -13 27 0 8 -9 24 -20 37 -11 13 -20 29 -20 36
0 7 -4 24 -9 38 l-10 24 -112 -33 c-135 -41 -146 -49 -129 -99 11 -34 8 -56
-9 -56 -4 0 -32 77 -62 170 -30 96 -59 170 -65 170 -7 0 -15 14 -19 31 -4 18
-15 33 -26 36 -10 3 -21 14 -24 24 -7 22 -18 24 -46 8 -17 -9 -21 -7 -26 11
-4 15 -10 19 -22 14 -53 -22 -58 -19 -81 50 -12 36 -25 66 -29 66 -3 0 -15
-17 -26 -37 -11 -21 -28 -46 -38 -56 -16 -16 -16 -22 -6 -52 10 -28 10 -36 -4
-49 -23 -23 -30 -52 -17 -76 8 -16 8 -22 -4 -26 -12 -5 -12 -10 0 -39 10 -25
11 -34 2 -37 -8 -3 16 -72 67 -197 45 -110 74 -195 69 -200 -5 -4 -25 -14 -44
-21 -70 -26 -350 -164 -350 -172 0 -5 14 -36 31 -69 17 -34 29 -62 27 -64 -2
-1 -25 -15 -53 -30 -27 -15 -64 -37 -81 -48 l-30 -20 342 -606 c343 -606 343
-606 321 -623 -12 -9 -24 -15 -28 -12 -4 2 -102 166 -219 364 -118 198 -219
360 -225 360 -6 0 -21 18 -34 40 -12 22 -25 40 -28 40 -3 0 -20 -9 -39 -20
l-32 -21 -16 23 c-13 19 -19 21 -34 11 -9 -6 -16 -18 -16 -27 1 -9 -2 -16 -7
-16 -5 0 -6 -7 -2 -16 3 -9 0 -19 -7 -24 -9 -5 -5 -18 14 -48 28 -45 31 -52
17 -52 -4 0 -20 18 -35 40 -16 24 -31 37 -40 34 -9 -3 -26 12 -47 43 -18 26
-33 50 -35 51 -1 2 -19 -7 -39 -21 -23 -16 -32 -27 -25 -32 6 -4 9 -14 6 -22
-3 -8 18 -48 49 -92 30 -43 55 -81 55 -84 0 -3 -7 -7 -15 -11 -10 -4 -43 34
-111 129 -53 74 -99 135 -104 135 -11 0 -222 -161 -323 -248 l-87 -75 55 -62
c30 -35 55 -67 55 -72 0 -4 -10 -14 -21 -22 -19 -11 -24 -10 -39 6 -10 10
-145 158 -300 328 -156 171 -289 311 -296 313 -6 2 -52 -19 -101 -46 -48 -27
-96 -51 -105 -55 -10 -3 -18 -11 -18 -17 0 -16 -22 -12 -46 11 l-21 20 -37
-21 c-21 -11 -42 -18 -47 -14 -6 3 -24 -6 -40 -22 l-29 -28 -29 28 c-28 26
-32 27 -66 16 l-37 -12 31 -32 c17 -18 31 -35 31 -39 0 -5 -21 -31 -47 -59
-30 -32 -43 -53 -35 -55 20 -7 14 -27 -18 -58 -17 -16 -28 -35 -26 -41 2 -6
-2 -21 -10 -32 -13 -19 -12 -23 16 -43 16 -13 30 -26 30 -31 0 -5 -27 -42 -60
-84 -33 -41 -60 -78 -59 -82 0 -4 91 -76 202 -159 543 -410 616 -468 606 -479
-5 -6 -6 -14 -3 -17 8 -7 -23 -57 -34 -57 -5 0 -36 20 -70 45 -34 24 -67 42
-74 40 -8 -3 -29 6 -48 20 -19 14 -35 25 -36 25 -2 0 -16 -19 -33 -43 l-29
-43 49 -34 c27 -18 49 -36 49 -39 0 -4 -11 -23 -25 -43 -14 -20 -25 -39 -25
-42 0 -3 28 -24 63 -47 34 -23 63 -43 65 -44 1 -1 -27 -49 -63 -106 -36 -57
-65 -107 -65 -111 0 -4 18 -18 40 -30 22 -13 40 -29 40 -37 0 -18 -8 -14 -202
95 -117 66 -174 93 -188 89 -11 -3 -30 1 -44 10 -29 19 -25 24 -111 -135 -27
-49 -55 -89 -62 -87 -6 1 -18 -6 -25 -16 -13 -17 -15 -17 -61 2 -26 11 -48 17
-48 13 -1 -4 -2 -14 -3 -22 -2 -30 -41 -110 -54 -110 -8 0 -12 -8 -10 -17 2
-10 -15 -65 -38 -123 -28 -70 -38 -106 -31 -109 7 -2 31 -12 54 -22 l42 -18
-45 -126 c-24 -69 -44 -130 -44 -134 0 -4 15 -12 33 -18 24 -7 31 -14 29 -29
-2 -18 7 -24 63 -39 36 -9 65 -21 65 -25 0 -4 -5 -22 -11 -39 -8 -23 -17 -31
-28 -28 -9 2 -123 35 -253 72 l-237 68 6 27 c5 30 2 34 -38 43 -24 6 -27 3
-42 -53 -13 -46 -21 -60 -36 -60 -16 0 -24 -21 -51 -132 -17 -73 -34 -141 -37
-151 -4 -15 -11 -17 -44 -12 -25 4 -39 3 -39 -4 0 -6 -7 -11 -15 -11 -18 0
-19 -12 -4 -27 7 -7 6 -32 -5 -84 -8 -41 -18 -95 -21 -121 -5 -31 -12 -48 -21
-48 -8 0 -14 -8 -14 -19 0 -10 -3 -33 -6 -50 -5 -25 -3 -31 10 -31 12 0 16 -7
14 -27 -3 -25 0 -28 32 -31 46 -4 52 -12 41 -48 -5 -16 -12 -80 -15 -141 -5
-94 -4 -113 8 -113 11 0 13 -12 9 -60 l-6 -60 42 0 c39 0 41 1 41 31 l0 31
107 -6 c60 -4 178 -11 263 -16 85 -6 308 -19 495 -30 187 -11 365 -22 397 -25
l56 -5 6 38 c3 20 8 71 11 112 9 103 51 379 64 410 15 38 13 10 -9 -113 -25
-139 -50 -354 -50 -427 0 -79 -10 -131 -24 -123 -7 4 -8 2 -1 -5 6 -6 40 -12
77 -14 l67 -3 5 50 c3 28 8 88 11 135 3 47 11 123 16 170 9 74 17 120 46 288
3 17 10 32 14 32 12 0 11 -13 -6 -101 -22 -116 -44 -308 -54 -468 -7 -100 -13
-146 -23 -152 -7 -5 43 -9 117 -9 72 0 201 -3 288 -7 156 -6 157 -6 157 -30
l0 -23 -1311 0 -1310 0 7 -177 c3 -98 8 -179 9 -181 2 -2 244 11 539 29 295
18 538 30 540 28 2 -2 7 -45 11 -95 l7 -91 -123 -12 c-173 -16 -179 -18 -179
-47 0 -13 -4 -24 -10 -24 -5 0 -10 -11 -10 -24 0 -15 -7 -26 -19 -29 -16 -4
-18 -10 -10 -48 4 -24 8 -56 9 -71 0 -25 -4 -28 -32 -28 -59 0 -78 -10 -72
-35 5 -20 1 -24 -36 -30 -31 -5 -40 -11 -36 -22 3 -8 6 -18 6 -22 0 -9 115 -6
159 4 23 5 29 2 34 -15 5 -19 10 -21 36 -15 29 6 32 4 37 -24 4 -17 12 -31 18
-31 7 0 70 11 141 25 72 14 135 25 141 25 6 0 16 -32 23 -70 7 -38 14 -70 16
-70 1 0 52 11 113 25 61 14 113 25 115 25 2 0 10 -26 17 -57 7 -31 28 -111 46
-176 19 -66 33 -121 32 -123 -3 -3 -316 -102 -529 -168 l-116 -36 -31 -69 -31
-69 43 -119 c45 -124 141 -360 154 -379 4 -5 37 -23 73 -38 l67 -28 381 182
c210 101 383 181 385 179 6 -8 146 -279 146 -283 0 -2 -25 -19 -55 -36 l-55
-31 27 -42 c14 -23 27 -44 29 -46 2 -2 26 11 54 28 28 17 52 31 55 31 2 0 23
-28 45 -61 38 -57 39 -62 23 -75 -10 -7 -21 -14 -24 -14 -3 0 -21 -36 -39 -81
l-34 -80 -332 -227 c-258 -176 -336 -234 -348 -260 -21 -42 -21 -42 9 -42 14
0 25 -2 25 -5 0 -3 -41 -60 -91 -127 -50 -67 -87 -124 -81 -126 5 -1 71 20
147 48 75 27 139 50 142 50 2 0 2 -14 -2 -30 -6 -29 -5 -30 28 -30 36 0 50 8
202 128 49 39 93 68 98 65 4 -2 14 0 21 6 8 7 18 10 24 9 5 -2 85 56 177 129
l167 132 44 -52 43 -52 -21 -22 -21 -23 33 -42 34 -42 -70 -63 c-38 -34 -65
-63 -60 -63 6 0 -2 -13 -17 -28 -24 -25 -26 -33 -20 -80 3 -32 2 -57 -5 -65
-9 -10 -8 -18 1 -32 12 -15 16 -16 34 -4 17 10 32 10 70 1 l48 -11 90 89 90
90 92 -92 c74 -74 95 -89 106 -80 11 9 18 8 32 -8 11 -13 25 -18 37 -14 13 4
16 1 13 -9 -6 -14 75 -97 94 -97 6 0 14 8 19 17 9 16 12 15 38 -1 26 -18 28
-18 40 -1 12 16 15 16 45 -6 l32 -22 18 24 c10 13 24 33 32 44 12 15 18 17 29
7 12 -10 21 -4 47 33 18 25 37 43 42 40 5 -4 -2 -21 -16 -39 -26 -34 -32 -56
-15 -56 18 0 10 -24 -20 -64 -17 -23 -28 -47 -25 -56 3 -9 -5 -30 -17 -45
l-22 -28 24 -16 c68 -45 68 -41 20 -108 -37 -53 -45 -84 -22 -83 4 0 25 27 47
60 39 58 57 71 70 50 11 -17 19 -11 48 35 16 25 31 45 34 45 3 0 50 -28 103
-62 l98 -62 12 -57 12 -57 41 14 c22 8 42 12 45 10 2 -3 -58 -116 -133 -252
l-137 -248 25 -18 c15 -11 24 -25 21 -32 -3 -7 2 -16 11 -20 14 -5 13 -13 -13
-61 l-30 -56 91 -46 c51 -25 139 -68 197 -94 l105 -47 26 62 c16 37 32 60 40
59 9 -2 37 52 82 160 85 203 82 199 106 168 18 -24 18 -25 -50 -194 -38 -94
-66 -174 -61 -178 4 -3 52 -23 107 -44 55 -21 102 -40 104 -42 4 -2 -14 -60
-56 -179 -2 -6 23 -19 56 -29 56 -17 60 -19 55 -44 -6 -26 -3 -27 110 -60 64
-18 116 -36 116 -40 0 -3 -14 -53 -30 -110 -16 -57 -27 -108 -24 -112 2 -4 47
-17 98 -29 l94 -22 -14 -56 c-48 -204 -77 -342 -73 -347 3 -3 102 -24 220 -47
118 -23 217 -47 221 -52 4 -6 8 -21 8 -33 0 -12 5 -23 12 -25 6 -2 17 -20 23
-39 6 -19 21 -38 33 -44 12 -5 23 -16 26 -25 3 -12 4 -11 5 3 0 9 7 17 14 17
7 0 21 16 31 35 11 19 26 35 34 35 7 0 16 9 19 20 3 11 9 20 14 20 5 0 9 11 9
25 0 15 6 25 14 25 10 0 16 14 18 43 3 36 6 42 25 41 24 -1 29 15 35 96 2 22
8 34 16 32 6 -1 12 4 12 10 0 7 7 72 15 143 8 72 15 133 15 138 0 4 10 7 23 7
22 0 22 2 56 363 44 479 39 447 68 447 23 0 24 -1 17 -60 l-7 -60 28 0 28 0
-7 -105 -7 -105 33 0 c63 0 61 9 48 -276 -6 -143 -16 -269 -22 -281 -11 -22
-4 -43 13 -43 20 0 239 -204 239 -222 0 -17 13 -18 172 -18 160 0 173 1 194
21 l22 20 45 -83 c25 -46 48 -100 52 -121 4 -20 11 -40 16 -43 5 -3 9 -27 9
-55 0 -27 4 -49 9 -49 6 0 13 -20 17 -45 4 -31 11 -45 21 -45 13 0 14 8 9 41
-4 22 -4 45 0 50 3 6 8 52 10 102 3 74 11 111 41 196 26 70 44 106 56 109 19
5 19 5 21 149 1 56 4 104 7 107 3 3 -11 138 -30 300 -19 163 -33 297 -30 299
2 3 20 7 40 11 35 6 37 5 78 -54 23 -33 45 -60 49 -60 18 1 30 19 47 70 9 30
22 60 27 65 5 6 43 17 86 25 73 15 77 17 77 42 1 33 2 34 46 42 33 6 37 4 43
-19 9 -35 92 -87 127 -79 27 5 27 4 55 -112 16 -65 35 -123 41 -130 7 -7 13
-19 13 -27 0 -8 9 -24 20 -37 11 -13 20 -29 20 -36 0 -7 4 -24 9 -38 l10 -24
112 33 c135 41 145 48 130 100 -10 37 -8 55 8 55 4 0 32 -76 62 -170 30 -93
59 -170 65 -170 6 0 16 -15 21 -32 5 -18 15 -32 22 -30 6 1 17 -9 23 -23 12
-28 20 -30 49 -14 17 9 21 7 26 -11 4 -15 10 -19 22 -14 53 22 58 19 81 -50
12 -36 25 -66 29 -66 3 0 15 17 26 37 11 21 28 46 38 56 16 16 16 22 6 52 -10
28 -10 36 4 49 23 23 30 52 17 76 -9 16 -8 22 4 26 14 5 14 10 1 39 -10 24
-10 35 -2 38 7 2 -19 76 -67 196 -45 109 -75 195 -70 200 5 4 25 14 44 21 70
26 350 164 350 172 0 5 -14 36 -31 69 -17 34 -29 62 -27 63 2 2 39 24 84 50
l81 48 -275 487 c-151 267 -305 540 -343 606 l-68 120 22 17 c12 9 25 15 28
12 4 -2 103 -166 220 -364 117 -198 218 -360 224 -360 6 0 21 -18 34 -40 12
-22 25 -40 28 -40 3 0 21 10 40 21 35 22 43 20 57 -16 6 -16 41 10 40 29 -1 9
3 16 8 16 6 0 7 8 4 17 -4 9 -1 20 6 24 8 5 4 18 -15 48 -29 44 -32 51 -18 51
4 0 20 -18 35 -40 16 -24 31 -37 40 -34 9 3 26 -12 47 -43 18 -26 33 -50 35
-51 1 -2 19 7 39 21 23 16 32 27 25 32 -6 4 -9 14 -6 22 4 9 -17 47 -49 93
-30 43 -55 80 -55 83 0 3 7 7 15 11 10 4 43 -34 111 -129 53 -74 100 -135 104
-135 11 0 173 125 303 232 l108 90 -56 63 c-30 35 -55 67 -55 72 0 4 10 14 22
22 20 13 25 10 72 -43 245 -274 553 -605 563 -605 16 -1 217 109 221 121 6 14
25 9 48 -13 l21 -20 37 21 c21 11 42 18 47 14 6 -3 24 6 40 22 l29 28 29 -28
c28 -26 32 -27 66 -16 l37 12 -31 32 c-17 18 -31 35 -31 39 0 5 21 30 46 57
40 42 45 52 34 65 -11 13 -8 21 20 50 19 19 31 38 27 42 -4 3 0 17 8 29 14 22
13 25 -15 46 -16 12 -30 26 -30 30 0 5 27 43 60 85 33 41 60 78 60 82 -1 3
-185 145 -410 316 -280 212 -406 313 -399 321 5 6 6 14 3 17 -8 7 23 57 34 57
5 0 36 -20 70 -45 34 -24 67 -42 74 -40 8 3 29 -6 48 -20 19 -14 35 -25 36
-25 2 0 17 20 33 44 l31 44 -50 32 c-28 18 -50 35 -50 39 0 3 11 23 25 43 14
20 25 39 25 42 0 3 -28 24 -62 47 -35 23 -64 43 -66 44 -2 2 25 46 58 99 34
54 63 103 66 111 4 8 -10 22 -35 37 -23 13 -41 29 -41 37 0 19 12 13 203 -95
114 -65 174 -93 187 -89 11 3 30 -1 43 -10 29 -19 25 -24 103 117 32 59 64
107 71 105 6 -1 18 6 26 17 13 18 15 18 60 -2 26 -12 48 -18 48 -14 1 4 2 14
3 22 2 30 41 110 54 110 8 0 12 8 10 17 -2 10 15 65 38 123 28 70 38 106 31
109 -7 2 -31 12 -54 22 l-42 18 45 126 c24 69 44 130 44 134 0 4 -15 12 -32
18 -25 7 -32 14 -30 29 2 18 -7 24 -63 39 -36 9 -65 21 -65 25 0 4 5 22 11 39
8 23 17 31 28 28 9 -2 123 -35 253 -72 l237 -68 -5 -27 c-5 -24 -2 -29 27 -39
18 -6 33 -10 34 -9 2 2 10 29 19 61 13 43 21 57 35 57 16 0 24 22 51 132 17
73 34 141 37 151 4 15 11 17 44 12 25 -4 39 -3 39 4 0 6 7 11 15 11 18 0 19
12 4 27 -7 7 -6 32 5 84 8 41 18 95 21 122 5 30 12 47 21 47 8 0 14 8 14 19 0
10 3 33 6 50 5 25 3 31 -10 31 -12 0 -16 7 -14 28 3 25 0 27 -37 32 -22 3 -40
10 -39 15 0 6 3 26 6 45 4 19 9 81 13 138 4 84 3 102 -9 102 -11 0 -13 12 -9
60 l6 60 -42 0 c-39 0 -41 -1 -41 -31 l0 -31 -107 6 c-60 4 -178 11 -263 16
-85 6 -308 19 -495 30 -187 11 -365 22 -397 25 l-56 5 -6 -38 c-3 -20 -8 -71
-11 -112 -9 -103 -51 -379 -64 -410 -15 -38 -13 -10 9 113 25 139 50 354 50
427 0 79 10 131 24 123 7 -4 8 -2 1 5 -5 6 -40 12 -77 14 l-67 3 -5 -50 c-3
-27 -8 -88 -11 -135 -3 -47 -11 -123 -16 -170 -9 -74 -17 -120 -46 -287 -3
-18 -10 -33 -14 -33 -12 0 -12 6 10 133 27 153 40 266 50 436 7 100 13 146 23
152 7 5 -43 9 -117 9 -71 0 -201 3 -287 7 -157 6 -158 6 -158 30 l0 23 1311 0
1310 0 -7 178 c-3 97 -8 178 -9 180 -2 2 -244 -11 -539 -29 -295 -17 -538 -30
-540 -28 -2 2 -7 45 -11 95 l-7 91 123 12 c175 17 179 18 179 47 0 13 5 24 10
24 6 0 10 11 10 24 0 15 7 26 19 29 16 4 18 10 10 48 -4 24 -8 56 -9 72 0 24
4 27 33 27 58 0 77 10 71 35 -5 20 -1 24 36 30 31 5 40 11 36 22 -3 8 -6 18
-6 22 0 9 -115 6 -159 -4 -24 -5 -29 -2 -34 16 -5 18 -11 21 -37 16 -28 -6
-31 -4 -37 23 -7 36 -4 36 -163 5 -69 -14 -130 -25 -136 -25 -6 0 -16 32 -23
70 -7 39 -14 70 -16 70 -1 0 -52 -11 -113 -25 -61 -14 -113 -25 -115 -25 -2 0
-10 26 -17 57 -7 31 -28 111 -46 176 -19 66 -33 122 -30 124 2 2 147 49 322
104 175 55 319 101 321 102 1 2 16 33 32 69 l30 66 -43 119 c-45 124 -141 360
-154 379 -4 5 -37 23 -74 38 l-67 28 -381 -182 c-210 -100 -383 -180 -384
-179 -6 9 -146 279 -146 283 0 2 25 19 55 36 l55 31 -27 42 c-14 23 -27 44
-29 46 -2 2 -27 -10 -55 -27 -27 -18 -52 -32 -55 -32 -2 0 -22 28 -44 62 l-39
63 23 14 c14 9 37 45 57 94 l34 79 328 225 c302 207 367 259 367 296 0 4 -11
7 -25 7 -14 0 -25 2 -25 5 0 2 41 60 91 127 50 67 86 124 81 126 -5 1 -72 -20
-148 -48 -76 -27 -140 -50 -142 -50 -2 0 -1 14 3 30 6 29 5 30 -30 30 -31 0
-55 -15 -161 -97 -69 -54 -130 -97 -136 -95 -5 1 -16 -2 -24 -9 -7 -6 -17 -8
-22 -5 -4 2 -84 -56 -176 -129 l-168 -135 -43 53 -44 52 21 22 21 23 -33 42
-34 42 69 63 c38 35 65 63 60 63 -5 0 3 13 18 28 24 25 26 33 20 80 -4 36 -2
56 7 67 11 13 11 19 -2 31 -13 13 -19 14 -36 3 -16 -10 -31 -10 -69 -1 l-48
11 -90 -90 -90 -89 -92 92 c-74 74 -94 89 -106 80 -11 -9 -18 -8 -32 8 -11 13
-25 18 -37 14 -13 -4 -16 -1 -13 9 6 14 -75 97 -94 97 -6 0 -14 -8 -19 -17 -9
-16 -12 -15 -38 1 -26 18 -28 18 -40 1 -12 -16 -15 -16 -45 6 -27 19 -33 20
-43 8 -48 -64 -56 -71 -69 -60 -11 8 -21 1 -46 -34 -18 -25 -37 -43 -42 -40
-5 4 2 21 16 39 26 34 32 56 15 56 -18 0 -10 24 20 64 17 23 28 47 25 56 -3 9
5 30 17 45 l22 28 -24 16 c-68 45 -68 41 -20 108 37 53 45 84 22 83 -4 0 -25
-27 -47 -60 -39 -58 -57 -71 -70 -50 -11 17 -19 11 -48 -35 -16 -25 -31 -45
-34 -45 -3 0 -50 28 -103 62 l-98 62 -12 57 -12 57 -41 -14 c-22 -8 -42 -12
-45 -10 -2 3 57 116 133 252 l137 248 -26 19 c-14 10 -23 24 -20 31 3 7 -2 16
-11 20 -14 5 -13 13 13 61 l30 56 -91 46 c-51 25 -139 68 -197 93 l-104 48
-28 -62 c-15 -34 -33 -60 -40 -59 -8 2 -41 -63 -87 -172 -40 -96 -75 -175 -78
-175 -3 0 -13 10 -22 22 -17 21 -16 26 50 191 38 93 67 173 65 176 -2 3 -52
24 -110 46 -58 22 -106 45 -106 50 0 6 14 48 30 93 17 46 30 84 30 86 0 1 -27
11 -59 21 -56 17 -60 19 -55 44 6 26 4 27 -110 60 -64 19 -116 37 -116 40 0 3
14 53 30 110 16 57 27 108 24 112 -2 4 -47 17 -98 29 -59 14 -93 26 -91 34 10
30 85 365 85 378 0 16 -87 38 -315 79 -66 12 -123 27 -127 33 -4 6 -8 21 -8
33 0 12 -5 23 -12 25 -6 2 -17 20 -23 39 -6 19 -21 38 -33 44 -12 5 -23 16
-26 25 -3 12 -4 11 -5 -2 0 -10 -7 -18 -14 -18 -7 0 -21 -13 -30 -30 -10 -16
-27 -35 -38 -40 -10 -6 -19 -17 -19 -25 0 -8 -4 -15 -10 -15 -5 0 -10 -11 -10
-25 0 -15 -6 -25 -14 -25 -10 0 -16 -14 -18 -42 -3 -37 -6 -43 -25 -42 -24 1
-29 -15 -35 -96 -2 -22 -8 -34 -15 -33 -7 2 -13 -3 -13 -10 0 -6 -7 -70 -15
-142 -8 -71 -15 -133 -15 -137 0 -5 -10 -8 -23 -8 -22 0 -22 -2 -56 -362 -44
-480 -39 -448 -68 -448 -23 0 -24 1 -17 60 l7 60 -28 0 -28 0 7 105 7 105 -33
0 c-63 0 -61 -9 -48 276 6 143 16 269 22 281 11 22 4 43 -13 43 -19 0 -239
204 -239 222 0 17 -13 18 -172 18 -160 0 -173 -1 -194 -21 l-22 -20 -45 83
c-25 46 -48 100 -52 121 -4 20 -11 40 -16 43 -5 3 -9 27 -9 55 0 27 -4 49 -9
49 -6 0 -13 20 -17 45 -4 31 -11 45 -21 45 -13 0 -14 -8 -9 -41z m4176 -2737
c0 -13 -12 -22 -22 -16 -10 6 -1 24 13 24 5 0 9 -4 9 -8z m-3395 -462 c147
-14 347 -48 382 -65 96 -47 201 -91 291 -121 655 -220 1222 -678 1580 -1275
72 -120 184 -353 231 -481 103 -280 162 -570 177 -875 6 -130 9 -142 27 -147
19 -5 20 -10 13 -118 -17 -268 -91 -658 -163 -857 -158 -437 -327 -723 -612
-1036 -74 -81 -103 -121 -112 -153 -6 -24 -21 -54 -32 -68 l-19 -25 -23 21
-23 22 -64 -54 c-311 -263 -693 -468 -1084 -581 -421 -122 -894 -149 -1324
-76 -63 11 -128 26 -145 33 -135 64 -206 93 -310 128 -560 189 -1087 583
-1431 1069 -330 465 -512 991 -540 1556 -6 130 -9 143 -27 149 -19 6 -19 12
-13 123 15 235 90 645 152 823 44 125 139 348 204 477 88 177 256 409 441 613
53 58 81 98 92 132 10 27 24 58 34 68 16 18 17 18 39 -3 l22 -21 64 54 c459
388 1031 629 1635 687 127 12 410 13 538 1z m-3952 -1882 c17 -7 27 -17 25
-27 -19 -96 -55 -221 -65 -221 -12 0 -12 0 24 139 13 51 22 95 20 98 -6 5 -18
-32 -47 -148 -21 -80 -24 -86 -46 -81 -13 2 -22 7 -19 11 2 4 -9 5 -26 3 -24
-4 -29 -1 -29 17 0 21 48 209 57 223 2 5 0 8 -5 8 -9 0 -44 -116 -58 -193 -6
-35 -24 -62 -24 -36 0 7 14 65 31 130 l31 117 52 -14 c28 -8 64 -20 79 -26z
m-110 -274 c33 -6 38 -10 33 -28 -3 -11 -6 -30 -6 -41 0 -17 -2 -17 -10 -5 -6
10 -8 3 -3 -22 4 -31 3 -38 -11 -38 -9 0 -16 -5 -16 -11 0 -5 5 -7 12 -3 8 5
9 -6 5 -41 -4 -26 -7 -53 -7 -60 0 -8 -8 -11 -22 -8 -22 4 -22 4 -4 -11 17
-14 18 -22 8 -123 -6 -59 -14 -147 -17 -195 l-7 -88 -49 0 -49 0 0 80 c0 107
15 252 47 448 22 134 30 161 42 158 9 -3 33 -8 54 -12z m7747 -1013 c0 -86
-25 -343 -39 -400 -5 -20 -14 -75 -21 -124 -11 -72 -16 -86 -29 -83 -9 3 -33
8 -54 12 -42 7 -41 4 -17 124 23 111 60 442 60 538 0 8 17 12 50 12 l50 0 0
-79z m-207 -643 c-3 -13 -16 -65 -30 -117 -13 -51 -22 -95 -20 -98 6 -5 18 32
47 148 l22 86 49 -10 c35 -7 49 -14 49 -26 0 -9 -13 -64 -29 -123 -16 -60 -26
-108 -22 -108 8 0 44 124 57 193 6 35 24 62 24 36 0 -7 -14 -65 -31 -130 l-31
-117 -52 14 c-68 20 -106 35 -106 43 -1 29 58 231 67 231 6 0 9 -9 6 -22z
m-7371 -2563 c0 -5 -5 -11 -11 -13 -6 -2 -11 4 -11 13 0 9 5 15 11 13 6 -2 11
-8 11 -13z"/>
<path d="M2110 7269 c0 -5 5 -7 10 -4 6 3 10 8 10 11 0 2 -4 4 -10 4 -5 0 -10
-5 -10 -11z"/>
<path d="M2070 7040 c-1 -3 -3 -21 -5 -40 -4 -31 -3 -32 6 -11 5 14 8 32 6 40
-3 9 -6 14 -7 11z"/>
<path d="M2040 6880 c0 -5 5 -10 10 -10 6 0 10 5 10 10 0 6 -4 10 -10 10 -5 0
-10 -4 -10 -10z"/>
<path d="M9768 5903 c7 -3 16 -2 19 1 4 3 -2 6 -13 5 -11 0 -14 -3 -6 -6z"/>
<path d="M6728 12582 c-4 -12 -2 -22 2 -22 5 0 11 -10 13 -22 4 -21 4 -21 5 2
0 14 -3 34 -7 44 -7 19 -8 19 -13 -2z"/>
<path d="M5022 260 c0 -14 3 -34 7 -44 7 -19 8 -19 13 2 4 12 2 22 -2 22 -5 0
-11 10 -13 23 -4 20 -4 20 -5 -3z"/>
<path d="M5023 155 c0 -22 2 -30 4 -17 2 12 2 30 0 40 -3 9 -5 -1 -4 -23z"/>
<path d="M5012 85 c0 -16 2 -22 5 -12 2 9 2 23 0 30 -3 6 -5 -1 -5 -18z"/>
<path d="M5002 20 c0 -14 2 -19 5 -12 2 6 2 18 0 25 -3 6 -5 1 -5 -13z"/>
</g>
</svg>
