<?xml version="1.0" standalone="no"?>
<!DOCTYPE svg PUBLIC "-//W3C//DTD SVG 20010904//EN"
 "http://www.w3.org/TR/2001/REC-SVG-20010904/DTD/svg10.dtd">
<svg version="1.0" xmlns="http://www.w3.org/2000/svg"
 width="1280.000000pt" height="1057.000000pt" viewBox="0 0 1280.000000 1057.000000"
 preserveAspectRatio="xMidYMid meet">
<metadata>
Created by potrace 1.15, written by Peter Selinger 2001-2017
</metadata>
<g transform="translate(0.000000,1057.000000) scale(0.100000,-0.100000)"
fill="#007bff" stroke="none">
<path d="M7335 10548 c-7 -35 -45 -238 -45 -245 0 -3 -24 -3 -54 1 l-53 6 -12
-90 -13 -90 -33 0 c-28 0 -34 -4 -39 -27 -7 -31 -123 -809 -133 -884 l-5 -47
-127 6 c-185 7 -345 -30 -536 -123 -49 -24 -91 -42 -93 -40 -3 2 -9 84 -14
182 -5 98 -11 183 -13 190 -2 6 -13 9 -26 6 -24 -7 -24 8 -2 -325 4 -66 2 -98
-5 -98 -13 0 -18 51 -37 365 -20 317 -19 315 -50 315 -17 0 -25 -6 -25 -18 0
-9 11 -155 25 -322 14 -168 25 -321 25 -341 0 -34 -6 -42 -90 -108 -50 -40
-94 -79 -97 -87 -5 -13 62 -504 226 -1661 43 -304 46 -333 30 -333 -13 0 -19
11 -24 43 -15 100 -14 99 -46 92 -16 -4 -29 -3 -29 2 -1 4 -47 235 -104 513
-89 438 -104 505 -120 504 -11 -1 -19 8 -23 27 -3 17 -12 29 -20 29 -12 0 -14
-7 -10 -30 9 -40 -11 -49 -24 -11 -16 44 -39 41 -32 -4 7 -44 -13 -48 -22 -4
-9 39 -31 32 -28 -9 4 -42 -13 -49 -26 -12 -14 43 -35 39 -28 -5 7 -44 -18
-49 -28 -6 -4 21 -11 28 -21 24 -10 -3 -12 -13 -8 -27 10 -33 10 -38 -3 -43
-6 -2 -14 10 -18 27 -9 40 -31 33 -28 -8 4 -42 -13 -49 -26 -12 -10 29 -21 37
-34 24 -3 -3 -1 -17 5 -30 8 -17 8 -28 1 -35 -7 -7 -14 0 -23 20 -7 17 -16 31
-20 31 -15 0 -18 -13 -9 -38 6 -17 6 -29 0 -35 -7 -7 -14 -1 -22 21 -6 18 -15
32 -19 32 -16 0 -21 -20 -10 -41 9 -15 9 -24 1 -32 -8 -8 -14 -2 -23 21 -13
34 -35 38 -30 6 1 -10 3 -30 3 -44 0 -20 424 -1004 575 -1337 18 -40 31 -73
29 -73 -3 0 -22 35 -44 78 -40 78 -272 435 -291 447 -6 4 -31 -5 -55 -20 -25
-14 -49 -24 -54 -21 -5 3 -44 66 -87 138 -99 170 -91 161 -118 142 -22 -14
-24 -12 -48 23 -13 21 -374 595 -802 1276 -428 680 -782 1237 -787 1237 -5 0
-28 -12 -50 -26 -23 -14 -42 -24 -44 -22 -1 2 -60 90 -129 196 -69 105 -129
192 -132 192 -5 0 -43 -25 -73 -46 -1 -2 54 -87 124 -190 70 -102 128 -192
129 -198 0 -7 -71 -67 -159 -133 -149 -113 -347 -277 -352 -291 -2 -4 126
-151 285 -328 158 -176 359 -401 446 -499 l160 -177 -77 -70 c-42 -38 -77 -75
-77 -81 0 -7 174 -182 386 -391 369 -363 384 -379 368 -397 -9 -11 -20 -19
-25 -19 -4 0 -42 32 -84 72 l-77 72 -43 -49 -43 -50 47 -40 c25 -22 61 -54 80
-71 l34 -30 -68 -86 -67 -86 -190 140 c-177 130 -219 153 -218 116 0 -7 86
-74 190 -148 104 -74 190 -140 190 -147 0 -6 -4 -15 -10 -18 -5 -3 -10 -10
-10 -15 0 -5 106 -81 235 -170 130 -89 233 -165 230 -170 -3 -5 157 -118 355
-251 198 -134 358 -245 355 -247 -3 -3 -35 15 -72 40 -38 24 -80 52 -94 61
l-26 17 -48 -85 c-26 -47 -49 -85 -52 -85 -2 0 -610 293 -1351 651 -741 359
-1476 714 -1634 790 -157 77 -290 139 -295 139 -4 -1 -24 -35 -43 -78 -18 -42
-35 -78 -36 -80 -1 -2 -53 20 -115 48 -62 28 -118 49 -125 46 -6 -2 -36 -65
-65 -140 -30 -75 -58 -136 -64 -136 -5 0 -79 25 -163 56 -87 32 -157 53 -161
48 -4 -5 -25 -57 -45 -116 -21 -60 -41 -108 -45 -108 -4 0 -185 58 -404 129
-219 70 -400 124 -403 120 -13 -21 -51 -165 -45 -170 3 -3 185 -58 405 -122
219 -64 400 -118 402 -119 1 -2 -10 -53 -27 -113 -16 -61 -29 -115 -29 -121 0
-7 74 -30 168 -54 l168 -41 -32 -152 c-18 -83 -31 -153 -29 -155 2 -3 58 -14
125 -27 66 -12 122 -24 125 -27 3 -3 -1 -44 -8 -92 -8 -47 -13 -86 -12 -86 1
0 247 -36 546 -80 299 -44 636 -94 749 -110 113 -17 216 -33 230 -35 l26 -6
-12 -104 c-6 -57 -15 -157 -19 -223 l-7 -119 293 -6 c459 -11 526 -10 533 8 8
21 61 19 77 -4 13 -17 56 -19 859 -35 465 -9 871 -16 903 -16 31 0 57 -4 57
-10 0 -6 -78 -10 -215 -10 -137 0 -215 -4 -215 -10 0 -6 45 -10 115 -10 70 0
115 -4 115 -10 0 -5 -15 -10 -34 -10 -263 0 -2003 -141 -2288 -186 l-38 -6 1
-51 c0 -29 6 -95 13 -147 7 -52 12 -98 10 -101 -2 -3 -27 -9 -55 -12 -28 -4
-54 -9 -57 -12 -3 -3 6 -63 20 -133 14 -70 24 -128 23 -129 -1 -2 -80 -21
-176 -43 -96 -23 -177 -44 -181 -48 -11 -11 2 -52 16 -52 6 0 88 20 181 44
l170 44 12 -28 12 -28 53 14 c69 18 65 19 72 -21 5 -24 12 -35 24 -35 9 0 156
36 327 80 170 43 310 78 311 77 1 -1 3 -60 5 -130 l4 -128 -301 -123 c-275
-112 -310 -128 -404 -196 -341 -243 -603 -509 -710 -720 -42 -82 -60 -151 -60
-224 1 -119 42 -180 160 -235 49 -22 71 -26 192 -29 113 -4 156 0 250 18 214
43 459 135 710 268 124 65 146 83 710 556 320 268 584 483 586 477 2 -6 -6
-23 -17 -37 -12 -15 -21 -34 -21 -43 0 -10 -38 -50 -85 -91 -47 -41 -85 -75
-85 -77 0 -13 28 7 96 67 43 39 87 70 99 70 11 0 30 7 42 15 12 8 24 11 27 6
3 -5 -28 -39 -69 -76 -102 -91 -127 -144 -88 -187 15 -17 11 -23 -74 -111 -60
-62 -93 -104 -98 -125 -3 -17 -22 -47 -41 -66 -24 -24 -34 -43 -34 -66 0 -26
-14 -47 -70 -108 -66 -71 -80 -92 -62 -92 4 0 39 36 77 80 54 61 76 80 96 80
30 0 75 32 84 59 3 10 18 21 33 24 27 6 80 56 169 162 40 47 43 48 61 32 39
-36 82 -11 168 98 65 82 91 99 88 59 -5 -63 -17 -90 -74 -168 -34 -48 -60 -89
-57 -92 3 -3 34 35 69 84 34 50 72 93 83 96 65 20 133 112 620 836 268 399
489 726 490 728 2 2 6 -1 9 -6 3 -5 -276 -582 -620 -1283 -1319 -2685 -1454
-2961 -1454 -2968 0 -5 56 -34 125 -66 96 -45 124 -62 120 -74 -3 -9 -18 -48
-35 -86 l-29 -70 54 -24 c30 -13 55 -27 55 -30 0 -3 -22 -62 -49 -131 l-49
-125 30 -13 c17 -7 36 -11 42 -9 7 3 32 59 56 126 25 67 50 121 56 121 6 0 28
-7 49 -16 20 -8 38 -14 39 -12 2 3 16 40 57 155 l8 22 65 -22 c36 -11 67 -19
70 -16 3 3 344 1073 743 2329 69 217 127 397 129 399 2 2 15 0 30 -3 23 -6 26
-11 21 -35 -4 -21 -580 -2049 -762 -2686 -8 -27 -11 -53 -7 -57 8 -7 280 -78
303 -78 40 -1 40 -20 4 -177 -4 -19 0 -22 43 -28 78 -10 77 -6 49 -154 -13
-72 -21 -133 -18 -136 3 -2 22 -6 41 -10 l36 -6 18 118 c27 176 20 162 74 152
55 -11 57 -8 66 75 12 103 13 105 52 99 28 -5 34 -2 34 12 0 24 120 948 124
952 1 2 29 -2 62 -8 152 -29 387 22 603 130 45 23 84 41 85 41 2 0 6 -53 10
-117 15 -268 16 -273 44 -273 l25 0 -7 93 c-3 50 -11 144 -16 207 -6 69 -6
118 0 124 13 13 16 -10 45 -354 15 -173 29 -318 31 -321 2 -4 15 -4 28 -2 21
4 24 10 21 32 -3 14 -19 174 -36 355 l-32 328 34 27 c83 64 151 124 155 136 3
7 -65 451 -150 987 -86 535 -156 981 -156 991 0 9 6 17 14 17 10 0 18 -22 26
-71 l12 -70 31 3 31 3 106 -485 c131 -596 116 -540 140 -540 15 0 20 -7 20
-24 0 -26 14 -41 29 -31 6 3 6 17 1 35 -7 23 -5 30 6 30 7 0 16 -11 20 -25 3
-14 13 -25 21 -25 11 0 12 8 7 35 -8 44 10 47 25 4 6 -18 16 -29 23 -26 14 5
14 9 3 45 -4 15 -2 22 8 22 8 0 18 -13 23 -30 6 -21 13 -27 22 -21 9 6 10 14
3 34 -7 18 -7 28 1 33 12 8 28 -13 28 -38 0 -10 7 -18 16 -18 13 0 15 7 10 34
-8 44 9 55 23 15 6 -18 16 -29 23 -26 14 5 14 9 3 45 -4 16 -2 22 8 22 8 0 18
-11 21 -25 4 -14 14 -25 22 -25 16 0 16 12 -1 53 -5 12 -3 17 8 17 8 0 18 -11
21 -25 4 -14 14 -25 22 -25 11 0 15 6 11 18 -2 9 -6 23 -8 31 -7 25 17 22 29
-4 18 -38 35 -32 28 10 -8 41 6 46 23 9 11 -26 39 -28 32 -3 -2 8 -5 28 -6 44
-2 17 -145 340 -319 719 -174 379 -315 690 -313 692 2 2 12 -15 22 -38 41 -93
307 -488 329 -488 6 0 29 11 51 25 22 13 43 25 46 25 3 0 37 -51 74 -112 128
-211 113 -192 141 -173 l24 16 86 -133 c1225 -1883 1558 -2395 1565 -2402 5
-5 25 2 48 17 22 15 44 27 49 27 5 0 66 -86 137 -190 71 -105 133 -190 138
-190 13 0 67 40 67 50 0 5 -58 91 -130 192 -71 101 -130 186 -130 190 0 4 51
45 113 91 115 86 267 209 355 288 l50 45 -455 494 -454 493 78 79 78 78 -45
44 c-25 24 -200 193 -390 377 -190 183 -346 336 -348 339 -1 4 7 15 18 25 20
18 21 17 94 -53 41 -40 79 -72 84 -72 10 0 82 81 82 93 0 3 -36 35 -80 72
l-79 67 63 81 c35 45 67 82 72 84 5 1 96 -60 203 -137 177 -129 194 -139 207
-123 7 10 10 21 6 24 -4 4 -92 66 -197 139 -104 73 -192 134 -194 136 -3 3 1
10 7 16 7 7 12 18 12 25 0 7 -106 83 -235 169 -128 86 -235 163 -237 171 -2 8
-169 124 -373 259 -203 135 -363 244 -353 241 9 -3 56 -31 104 -62 101 -65 89
-69 151 48 20 37 41 66 47 64 6 -3 753 -356 1659 -786 907 -430 1652 -781
1656 -781 4 0 22 35 41 77 18 43 34 79 36 81 1 2 55 -20 120 -48 102 -45 120
-49 129 -36 6 8 34 71 61 140 27 69 54 126 61 126 7 0 80 -25 163 -56 84 -30
155 -53 158 -49 4 3 23 54 43 113 33 99 38 107 61 105 14 -1 197 -56 407 -123
211 -67 384 -120 386 -118 5 6 56 171 53 173 -2 2 -185 55 -407 119 -222 64
-406 117 -407 119 -2 2 11 56 28 120 17 65 29 119 27 121 -2 2 -76 21 -164 42
-88 21 -163 40 -167 43 -3 3 4 53 17 111 13 58 26 126 30 151 l7 45 -127 23
-127 23 6 52 c3 28 9 68 12 88 6 33 4 38 -17 42 -22 5 -889 131 -1329 193
-102 14 -188 29 -193 33 -4 3 0 67 8 141 8 74 15 171 15 216 l0 82 -42 5 c-24
3 -211 8 -415 11 -336 6 -373 5 -373 -9 0 -12 -10 -16 -40 -16 -28 0 -40 4
-40 14 0 11 -25 15 -112 20 -89 4 -1623 37 -1715 36 -13 0 -23 5 -23 10 0 6
80 10 220 10 140 0 220 4 220 10 0 6 -47 10 -120 10 -66 0 -120 4 -120 8 0 5
71 12 158 16 86 3 225 11 307 16 83 6 222 15 310 21 411 27 934 73 1565 137
l65 7 -2 65 c-2 36 -8 102 -14 148 -6 46 -9 85 -7 87 3 3 29 9 58 15 29 6 55
11 56 13 1 1 -9 60 -22 131 -14 70 -24 129 -22 131 2 1 80 19 173 40 94 21
174 42 179 46 5 4 6 19 2 32 l-6 25 -172 -44 c-95 -24 -178 -44 -184 -44 -7 0
-15 12 -18 26 -6 23 -11 26 -36 20 -17 -3 -43 -9 -59 -12 -26 -6 -30 -3 -41
30 -6 20 -14 36 -17 36 -3 0 -149 -36 -324 -80 -176 -44 -324 -80 -329 -80 -6
0 -10 52 -10 129 l0 129 308 123 c275 110 318 130 407 193 354 246 615 511
722 731 134 278 31 454 -277 472 -254 15 -614 -89 -1000 -288 -107 -55 -158
-95 -710 -547 -327 -268 -596 -482 -598 -475 -2 7 6 22 17 35 12 12 21 29 21
39 0 13 59 71 164 161 5 4 7 10 4 14 -4 3 -45 -29 -93 -71 -47 -42 -89 -75
-92 -71 -3 3 -21 -1 -41 -10 -19 -8 -37 -13 -39 -11 -2 2 35 41 81 87 101 98
117 129 92 173 l-17 30 90 91 c54 56 92 103 97 121 4 17 22 44 40 61 32 30 39
48 34 83 -1 8 23 39 52 70 82 86 102 110 95 117 -3 4 -41 -30 -83 -75 -57 -60
-83 -81 -102 -81 -16 0 -38 -13 -61 -38 -20 -21 -51 -44 -69 -51 -19 -8 -68
-53 -114 -105 -50 -56 -87 -90 -97 -88 -9 2 -28 6 -44 9 -43 8 -78 -23 -194
-171 -19 -24 -25 -26 -38 -16 -12 10 -13 16 -4 26 6 8 12 28 14 45 1 21 25 62
69 120 36 49 62 89 57 89 -5 0 -39 -40 -76 -90 -40 -53 -74 -90 -84 -90 -10 0
-31 -15 -48 -32 -16 -18 -42 -42 -56 -53 -14 -11 -249 -342 -522 -735 -273
-393 -504 -722 -512 -730 -14 -13 -15 -13 -10 7 3 12 489 967 1081 2122 592
1155 1076 2102 1076 2106 0 3 -56 33 -125 66 -69 32 -125 61 -125 63 0 2 16
38 35 80 19 43 35 80 35 85 0 4 -23 15 -50 25 -28 10 -52 21 -54 25 -2 3 18
60 45 126 27 65 48 124 45 131 -2 6 -18 16 -36 22 -28 10 -32 9 -39 -11 -30
-77 -93 -233 -96 -235 -1 -2 -20 4 -41 13 -21 8 -43 14 -49 11 -7 -2 -24 -39
-40 -83 -15 -43 -29 -79 -30 -80 -1 -2 -30 7 -64 18 -35 12 -66 18 -71 13 -5
-5 -65 -178 -135 -384 -70 -206 -172 -508 -227 -670 -113 -335 -265 -785 -426
-1260 -147 -433 -136 -406 -158 -402 -11 2 -23 8 -28 12 -6 6 158 559 408
1381 230 754 414 1375 409 1379 -4 5 -80 27 -168 50 -87 22 -161 43 -164 45
-2 3 3 39 12 80 23 104 24 103 -26 110 -75 11 -73 7 -44 156 15 73 26 133 24
134 -1 1 -19 5 -39 9 -33 6 -38 4 -43 -16z m-425 -3635 c2 -2 -16 -66 -42
-141 -25 -75 -130 -384 -232 -686 -102 -302 -189 -552 -193 -555 -3 -3 -4 1
-1 9 3 8 99 324 214 702 194 640 210 687 229 682 11 -4 22 -8 25 -11z m-982
-628 c-3 -3 -9 2 -12 12 -6 14 -5 15 5 6 7 -7 10 -15 7 -18z m31 -70 c0 -5 -6
1 -14 15 -8 14 -14 30 -14 35 0 6 6 -1 14 -15 8 -14 14 -29 14 -35z m31 -70
c0 -5 -5 -3 -10 5 -5 8 -10 20 -10 25 0 6 5 3 10 -5 5 -8 10 -19 10 -25z
m-545 -306 c13 -13 3 -11 -41 7 -37 16 -39 15 -56 -6 -16 -20 -22 -21 -44 -12
l-25 12 21 40 21 40 57 -36 c31 -20 61 -40 67 -45z m-135 -24 c16 -9 19 -14 9
-15 -8 0 -24 7 -35 15 -24 18 -7 19 26 0z m-1626 -171 c9 -3 16 -15 16 -26 0
-16 -5 -19 -22 -14 -13 3 -31 6 -40 6 -11 0 -18 8 -18 20 0 21 30 27 64 14z
m-10 -90 c9 -3 16 -15 16 -26 0 -18 -4 -19 -37 -13 -45 8 -47 10 -40 30 7 15
33 20 61 9z m0 -90 c18 -7 21 -30 6 -39 -21 -13 -70 6 -70 26 0 20 31 26 64
13z m5506 -334 c0 -17 -7 -20 -40 -20 -33 0 -40 3 -40 20 0 17 7 20 40 20 33
0 40 -3 40 -20z m-10 -90 c0 -17 -7 -20 -40 -20 -33 0 -40 3 -40 20 0 17 7 20
40 20 33 0 40 -3 40 -20z m-3060 -651 c-99 -349 -187 -658 -196 -686 -8 -29
-20 -53 -27 -53 -43 1 -40 10 108 476 81 252 179 561 219 686 39 125 72 224
74 219 2 -5 -79 -294 -178 -642z m3050 561 c0 -17 -7 -20 -40 -20 -33 0 -40 3
-40 20 0 17 7 20 40 20 33 0 40 -3 40 -20z m-1696 -183 c17 -13 17 -15 -4 -58
-12 -24 -23 -45 -25 -47 -3 -4 -86 45 -115 68 l-25 19 49 -17 c48 -17 48 -17
63 5 12 18 19 21 35 12 11 -6 22 -8 25 -6 2 3 -5 8 -16 12 -12 3 -21 11 -21
16 0 13 13 11 34 -4z m-714 -302 c0 -5 -5 -3 -10 5 -5 8 -10 20 -10 25 0 6 5
3 10 -5 5 -8 10 -19 10 -25z m79 -170 c0 -5 -11 10 -24 35 -13 25 -24 50 -24
55 0 6 11 -10 24 -35 13 -25 24 -49 24 -55z"/>
<path d="M9853 5743 c4 -32 12 -121 18 -198 6 -77 13 -141 14 -143 1 -1 10 1
20 4 16 7 17 17 11 113 -4 58 -12 145 -18 194 -9 77 -13 87 -31 87 -18 0 -19
-5 -14 -57z"/>
<path d="M2875 5098 c24 -295 30 -330 54 -326 18 4 18 14 2 177 -6 58 -11 131
-11 163 0 56 -1 58 -26 58 l-25 0 6 -72z"/>
</g>
</svg>
